<svg width="335" height="178" viewBox="0 0 335 178" fill="none" xmlns="http://www.w3.org/2000/svg">
<path d="M223.637 4.80092H219.56V0H224.361V4.07749H235.804V0H240.605V4.80092H236.528V8.87841H223.637V4.80092ZM215.482 12.2325H220.283V40.7092H223.637V36.6317H227.715V28.4767H231.727V24.3992H235.804V20.3217H239.882V16.31H243.959V12.2325H248.694V49.5876H243.959V21.0451H240.605V25.1226H236.528V29.2001H232.45V37.2893H228.373V41.3668H224.361V45.4443H220.283V49.5876H215.482V12.2325Z" fill="white"/>
<path d="M178.252 43.5054C175.054 40.0755 173.455 35.4174 173.455 29.531C173.455 23.6447 175.054 19.0097 178.252 15.6262C181.497 12.1964 185.83 10.4814 191.253 10.4814C196.722 10.4814 201.056 12.1964 204.254 15.6262C207.499 19.0097 209.121 23.6447 209.121 29.531C209.121 35.4174 207.499 40.0755 204.254 43.5054C201.056 46.8889 196.722 48.5807 191.253 48.5807C185.83 48.5807 181.497 46.8889 178.252 43.5054ZM183.606 19.9367C181.752 22.3469 180.825 25.545 180.825 29.531C180.825 33.5171 181.752 36.7152 183.606 39.1254C185.506 41.5355 188.055 42.7406 191.253 42.7406C194.451 42.7406 197.001 41.5355 198.901 39.1254C200.801 36.7152 201.751 33.5171 201.751 29.531C201.751 25.545 200.801 22.3469 198.901 19.9367C197.001 17.5266 194.451 16.3215 191.253 16.3215C188.055 16.3215 185.506 17.5266 183.606 19.9367Z" fill="white"/>
<path d="M151.558 48.4218C146.875 48.4218 143.294 47.2284 140.818 44.8417C138.386 42.4549 137.17 38.9649 137.17 34.3715C137.17 32.5252 137.373 30.5437 137.778 28.4271C138.228 26.2656 138.949 24.149 139.939 22.0775C140.975 20.006 142.304 18.1371 143.925 16.4709C145.546 14.7596 147.55 13.4086 149.937 12.4179C152.369 11.3821 155.183 10.8643 158.38 10.8643C161.803 10.8643 164.46 11.5172 166.351 12.8232C168.243 14.0841 169.188 15.953 169.188 18.4298C169.188 20.4563 168.603 22.1901 167.432 23.6311C166.306 25.0272 164.64 26.1755 162.433 27.0762C160.272 27.9318 157.637 28.5622 154.53 28.9675C156.151 29.1026 157.682 29.3728 159.124 29.7781C160.61 30.1384 161.916 30.6563 163.041 31.3318C164.212 32.0073 165.113 32.8629 165.743 33.8987C166.374 34.9344 166.689 36.2179 166.689 37.749C166.689 39.7755 166.104 41.5993 164.933 43.2205C163.762 44.7967 162.051 46.0576 159.799 47.0033C157.547 47.949 154.8 48.4218 151.558 48.4218ZM151.558 47.7463C152.999 47.7463 154.237 47.3185 155.273 46.4629C156.309 45.6073 157.097 44.4139 157.637 42.8828C158.223 41.3516 158.516 39.5503 158.516 37.4788C158.516 35.7675 158.245 34.349 157.705 33.2232C157.165 32.0973 156.467 31.2192 155.611 30.5887C154.755 29.9132 153.787 29.4404 152.706 29.1702C152.436 29.2152 151.918 29.2603 151.153 29.3053C150.387 29.3503 149.577 29.4179 148.721 29.5079C147.91 29.553 147.235 29.5755 146.694 29.5755C146.604 30.1609 146.514 30.9265 146.424 31.8722C146.334 32.8179 146.244 33.7636 146.154 34.7093C146.109 35.655 146.086 36.443 146.086 37.0735C146.086 39.5953 146.289 41.6444 146.694 43.2205C147.145 44.7967 147.775 45.945 148.586 46.6655C149.441 47.3861 150.432 47.7463 151.558 47.7463ZM147.437 28.9C149.329 28.9 151.085 28.6298 152.706 28.0894C154.328 27.549 155.746 26.7384 156.962 25.6576C158.178 24.5768 159.101 23.2258 159.731 21.6046C160.407 19.9835 160.745 18.1146 160.745 15.998C160.745 14.4669 160.497 13.3411 160.002 12.6205C159.506 11.9 158.786 11.5398 157.84 11.5398C156.624 11.5398 155.453 11.9901 154.328 12.8907C153.202 13.7914 152.143 15.0523 151.153 16.6735C150.162 18.2497 149.284 20.096 148.518 22.2126C147.798 24.2841 147.235 26.5132 146.83 28.9H147.437Z" fill="white"/>
<path d="M100.982 47.746V22.7981H86.3066V11.8584H133.734V22.7981H119.059V47.746H100.982Z" fill="white"/>
<path d="M79.9325 70.9074H92.3225V107.587H85.1825V76.0874L74.1925 107.587H65.0225L54.1025 76.0874V107.587H46.8925V70.9074H59.3525L69.7125 103.387L79.9325 70.9074ZM98.92 89.2474C98.92 82.9474 100.553 78.1874 103.82 74.9674C107.087 71.7007 111.427 70.0674 116.84 70.0674C128.273 70.0674 133.99 76.8807 133.99 90.5074V91.4174H106.41C106.69 95.1974 107.787 98.0907 109.7 100.097C111.66 102.057 114.203 103.037 117.33 103.037C121.763 103.037 124.773 101.147 126.36 97.3674L133.5 97.8574C132.52 101.171 130.63 103.761 127.83 105.627C125.077 107.494 121.577 108.427 117.33 108.427C111.683 108.427 107.203 106.817 103.89 103.597C100.577 100.377 98.92 95.5941 98.92 89.2474ZM106.48 86.5174H126.57C126.43 83.0641 125.497 80.3574 123.77 78.3974C122.043 76.4374 119.733 75.4574 116.84 75.4574C113.947 75.4574 111.567 76.3907 109.7 78.2574C107.88 80.1241 106.807 82.8774 106.48 86.5174ZM140.444 107.587V70.9074H147.934V85.8174H165.434V70.9074H172.924V107.587H165.434V91.9774H147.934V107.587H140.444ZM178.363 77.0674V70.9074H210.493V77.0674H198.173V107.587H190.683V77.0674H178.363ZM217.314 103.317C214.094 99.8641 212.484 95.1741 212.484 89.2474C212.484 83.3207 214.094 78.6541 217.314 75.2474C220.581 71.7941 224.944 70.0674 230.404 70.0674C235.911 70.0674 240.274 71.7941 243.494 75.2474C246.761 78.6541 248.394 83.3207 248.394 89.2474C248.394 95.1741 246.761 99.8641 243.494 103.317C240.274 106.724 235.911 108.427 230.404 108.427C224.944 108.427 220.581 106.724 217.314 103.317ZM222.704 79.5874C220.837 82.0141 219.904 85.2341 219.904 89.2474C219.904 93.2607 220.837 96.4807 222.704 98.9074C224.617 101.334 227.184 102.547 230.404 102.547C233.624 102.547 236.191 101.334 238.104 98.9074C240.017 96.4807 240.974 93.2607 240.974 89.2474C240.974 85.2341 240.017 82.0141 238.104 79.5874C236.191 77.1607 233.624 75.9474 230.404 75.9474C227.184 75.9474 224.617 77.1607 222.704 79.5874ZM254.965 121.587V70.9074H261.895V78.2574C263.061 75.6441 264.765 73.6374 267.005 72.2374C269.245 70.7907 271.765 70.0674 274.565 70.0674C279.138 70.0674 282.848 71.7941 285.695 75.2474C288.588 78.6541 290.035 83.3207 290.035 89.2474C290.035 95.1741 288.588 99.8641 285.695 103.317C282.848 106.724 279.161 108.427 274.635 108.427C269.128 108.427 265.068 105.977 262.455 101.077V121.587H254.965ZM264.835 79.5874C263.015 82.0141 262.105 85.2341 262.105 89.2474C262.105 93.2607 263.015 96.4807 264.835 98.9074C266.701 101.334 269.198 102.547 272.325 102.547C275.498 102.547 277.995 101.334 279.815 98.9074C281.681 96.4807 282.615 93.2607 282.615 89.2474C282.615 85.2341 281.681 82.0141 279.815 79.5874C277.995 77.1607 275.498 75.9474 272.325 75.9474C269.198 75.9474 266.701 77.1607 264.835 79.5874ZM25.6644 148.617C32.9911 149.364 36.6544 152.351 36.6544 157.577C36.6544 160.424 35.5578 162.804 33.3644 164.717C31.2178 166.631 27.7178 167.587 22.8644 167.587H4.94442V130.907H21.9544C26.4344 130.907 29.7944 131.771 32.0344 133.497C34.3211 135.177 35.4644 137.394 35.4644 140.147C35.4644 144.907 32.1978 147.731 25.6644 148.617ZM12.4344 136.507V146.447H21.3944C25.7811 146.447 27.9744 144.791 27.9744 141.477C27.9744 138.164 25.6644 136.507 21.0444 136.507H12.4344ZM22.1644 161.987C26.8311 161.987 29.1644 160.191 29.1644 156.597C29.1644 153.097 26.7144 151.347 21.8144 151.347H12.4344V161.987H22.1644ZM88.397 161.427H92.877V177.387H85.807V167.587H61.727V177.387H54.657V161.427H57.457C58.2037 159.794 58.8103 157.367 59.277 154.147C59.7437 150.881 60.0703 147.871 60.257 145.117C60.4437 142.317 60.7237 137.581 61.097 130.907H88.397V161.427ZM80.907 161.427V137.067H67.537C67.4903 137.814 67.397 138.957 67.257 140.497C67.1637 142.037 67.0937 143.134 67.047 143.787C67.0003 144.394 66.9303 145.351 66.837 146.657C66.7437 147.917 66.6737 148.851 66.627 149.457C66.5803 150.017 66.5103 150.811 66.417 151.837C66.3237 152.817 66.2303 153.587 66.137 154.147C66.0437 154.707 65.927 155.384 65.787 156.177C65.6937 156.971 65.577 157.624 65.437 158.137C65.3437 158.651 65.227 159.211 65.087 159.817C64.947 160.377 64.7837 160.914 64.597 161.427H80.907ZM120.679 130.907H131.809V167.587H124.599V136.367L109.199 167.587H98.069V130.907H105.279V162.127L120.679 130.907ZM159.057 148.617C166.617 149.364 170.397 152.444 170.397 157.857C170.397 160.984 169.16 163.527 166.687 165.487C164.214 167.447 160.084 168.427 154.297 168.427C143.704 168.427 138.127 164.344 137.567 156.177L144.777 155.827C145.15 160.401 148.324 162.687 154.297 162.687C160.037 162.687 162.907 160.727 162.907 156.807C162.907 153.167 159.827 151.347 153.667 151.347H149.397V146.447H153.317C156.164 146.447 158.264 145.981 159.617 145.047C161.017 144.067 161.717 142.784 161.717 141.197C161.717 139.517 161.04 138.211 159.687 137.277C158.38 136.297 156.607 135.807 154.367 135.807C152.034 135.807 150.097 136.344 148.557 137.417C147.064 138.491 146.2 140.124 145.967 142.317L138.757 141.897C139.037 137.884 140.577 134.921 143.377 133.007C146.224 131.047 149.887 130.067 154.367 130.067C159.314 130.067 163.024 130.954 165.497 132.727C167.97 134.454 169.207 136.787 169.207 139.727C169.207 144.674 165.824 147.637 159.057 148.617ZM174.898 157.857C174.898 151.137 179.821 147.311 189.668 146.377L200.028 145.397V142.597C200.028 140.451 199.351 138.724 197.998 137.417C196.691 136.111 194.708 135.457 192.048 135.457C189.668 135.457 187.708 136.017 186.168 137.137C184.628 138.211 183.788 139.797 183.648 141.897H176.788C176.928 137.837 178.398 134.851 181.198 132.937C183.998 131.024 187.615 130.067 192.048 130.067C197.041 130.067 200.868 131.257 203.528 133.637C206.188 136.017 207.518 139.517 207.518 144.137V167.587H200.588V160.447C199.421 162.967 197.671 164.927 195.338 166.327C193.005 167.727 190.181 168.427 186.868 168.427C182.901 168.427 179.915 167.447 177.908 165.487C175.901 163.527 174.898 160.984 174.898 157.857ZM182.318 157.507C182.318 159.187 182.878 160.564 183.998 161.637C185.165 162.664 186.891 163.177 189.178 163.177C192.491 163.177 195.128 162.151 197.088 160.097C199.048 157.997 200.028 155.314 200.028 152.047V150.087L190.648 150.997C185.095 151.557 182.318 153.727 182.318 157.507ZM240.235 123.557C238.508 125.331 235.965 126.217 232.605 126.217C229.245 126.217 226.678 125.331 224.905 123.557C223.178 121.784 222.268 119.381 222.175 116.347H227.145C227.285 117.841 227.775 119.147 228.615 120.267C229.501 121.341 230.831 121.877 232.605 121.877C235.825 121.877 237.645 120.034 238.065 116.347H242.965C242.871 119.381 241.961 121.784 240.235 123.557ZM238.345 130.907H249.475V167.587H242.265V136.367L226.865 167.587H215.735V130.907H222.945V162.127L238.345 130.907ZM258.033 167.587V130.907H265.523V145.817H283.023V130.907H290.513V167.587H283.023V151.977H265.523V167.587H258.033ZM297.072 149.247C297.072 142.947 298.705 138.187 301.972 134.967C305.239 131.701 309.579 130.067 314.992 130.067C326.425 130.067 332.142 136.881 332.142 150.507V151.417H304.562C304.842 155.197 305.939 158.091 307.852 160.097C309.812 162.057 312.355 163.037 315.482 163.037C319.915 163.037 322.925 161.147 324.512 157.367L331.652 157.857C330.672 161.171 328.782 163.761 325.982 165.627C323.229 167.494 319.729 168.427 315.482 168.427C309.835 168.427 305.355 166.817 302.042 163.597C298.729 160.377 297.072 155.594 297.072 149.247ZM304.632 146.517H324.722C324.582 143.064 323.649 140.357 321.922 138.397C320.195 136.437 317.885 135.457 314.992 135.457C312.099 135.457 309.719 136.391 307.852 138.257C306.032 140.124 304.959 142.877 304.632 146.517Z" fill="white"/>
</svg>
