<svg width="60" height="59" viewBox="0 0 60 59" fill="none" xmlns="http://www.w3.org/2000/svg">
<path d="M26.5364 1.52058L26.5359 1.52063C22.2064 2.05397 18.0089 3.6101 14.3919 6.00996C8.77495 9.73716 4.69065 15.1842 2.77687 21.5158L2.77511 21.5214C2.3225 22.9762 1.8746 25.2198 1.70763 26.7179C1.56472 28.094 1.56477 31.5271 1.70781 32.9016C2.91018 44.1679 10.8939 53.7957 21.793 57.0855L21.793 57.0854L21.7983 57.0871C23.2557 57.539 25.5033 57.9862 27.0042 58.1529C28.3829 58.2956 31.8221 58.2955 33.1991 58.1527C39.7865 57.4527 45.8981 54.4648 50.6 49.6377C53.8208 46.3108 56.1007 42.4675 57.425 38.1014L57.4253 38.1003C58.2474 35.4052 58.604 32.9126 58.604 29.8089C58.604 27.466 58.493 26.2036 58.0928 24.1946L58.0925 24.1931C56.0782 13.9721 48.4404 5.56683 38.4082 2.53225L38.4033 2.53075C36.9455 2.07869 34.6969 1.63137 33.196 1.46479C31.7543 1.31136 27.9534 1.34512 26.5364 1.52058ZM26.3648 18.8664L26.3692 18.8692C26.8415 19.1566 30.2933 21.2904 34.0277 23.6276L34.0284 23.6281C36.5798 25.2292 38.2989 26.319 39.4054 27.0463C39.9576 27.4093 40.3663 27.6879 40.6525 27.8978C40.7952 28.0024 40.9165 28.0965 41.0133 28.18C41.0933 28.2489 41.2053 28.351 41.2888 28.4746C41.5706 28.8818 41.6782 29.33 41.6782 29.8089C41.6782 30.2878 41.5706 30.736 41.2889 31.1431C41.2054 31.2667 41.0933 31.3689 41.0133 31.4378C40.9165 31.5213 40.7952 31.6154 40.6525 31.72C40.3663 31.9299 39.9576 32.2086 39.4054 32.5715C38.2989 33.2988 36.5798 34.3886 34.0284 35.9898L34.027 35.9906C33.4766 36.3344 32.9619 36.6559 32.4804 36.9566C29.0496 39.0995 27.3088 40.1868 26.3704 40.7343C25.8496 41.0381 25.515 41.2131 25.2511 41.2975C24.977 41.3852 24.7455 41.3741 24.6458 41.3694C24.6298 41.3686 24.6171 41.368 24.6083 41.368C23.6988 41.368 22.9239 40.8803 22.4628 40.0998C22.4281 40.042 22.3753 39.9524 22.3292 39.8319C22.2831 39.7114 22.2527 39.5848 22.2304 39.4428C22.1883 39.1747 22.1655 38.7835 22.1506 38.1581C22.1204 36.8939 22.1204 34.5087 22.1204 29.8372V29.8089V29.7806C22.1204 25.1091 22.1204 22.7239 22.1506 21.4598C22.1655 20.8343 22.1883 20.4431 22.2304 20.175C22.2527 20.033 22.2831 19.9064 22.3292 19.7859C22.3754 19.6653 22.4283 19.5756 22.463 19.5178C22.9241 18.7375 23.6989 18.2498 24.6083 18.2498C25.2361 18.2498 25.6524 18.4398 26.3648 18.8664Z" fill="black" fill-opacity="0.1" stroke="white" stroke-width="1.45879"/>
</svg>
