<svg width="890" height="247" viewBox="0 0 890 247" fill="none" xmlns="http://www.w3.org/2000/svg">
<path d="M31.767 102V48.892H0.527012V25.604H101.489V48.892H70.249V102H31.767ZM139.432 103.438C129.462 103.438 121.841 100.898 116.568 95.8167C111.391 90.7359 108.803 83.3064 108.803 73.5282C108.803 69.5978 109.235 65.3798 110.097 60.8741C111.056 56.2726 112.59 51.767 114.699 47.3572C116.904 42.9475 119.732 38.9691 123.183 35.4221C126.634 31.7792 130.9 28.9033 135.981 26.7943C141.157 24.5894 147.149 23.487 153.955 23.487C161.241 23.487 166.897 24.877 170.923 27.6571C174.95 30.3413 176.963 34.3197 176.963 39.5922C176.963 43.9061 175.717 47.5969 173.224 50.6646C170.827 53.6364 167.281 56.0809 162.583 57.9982C157.982 59.8196 152.374 61.1617 145.759 62.0245C149.21 62.3121 152.469 62.8873 155.537 63.7501C158.701 64.517 161.481 65.6194 163.877 67.0574C166.37 68.4954 168.287 70.3168 169.629 72.5217C170.971 74.7265 171.642 77.4587 171.642 80.7181C171.642 85.032 170.396 88.9145 167.904 92.3656C165.411 95.7209 161.768 98.4051 156.975 100.418C152.182 102.431 146.334 103.438 139.432 103.438ZM139.432 102C142.5 102 145.136 101.089 147.341 99.2679C149.546 97.4464 151.223 94.906 152.374 91.6466C153.62 88.3872 154.243 84.5527 154.243 80.1429C154.243 76.5 153.668 73.4803 152.517 71.0837C151.367 68.6871 149.881 66.8177 148.06 65.4756C146.238 64.0377 144.177 63.0311 141.876 62.4559C141.301 62.5518 140.199 62.6476 138.569 62.7435C136.939 62.8393 135.214 62.9831 133.392 63.1749C131.667 63.2707 130.229 63.3187 129.078 63.3187C128.887 64.5649 128.695 66.1946 128.503 68.2078C128.312 70.2209 128.12 72.2341 127.928 74.2472C127.832 76.2604 127.784 77.938 127.784 79.2801C127.784 84.6485 128.216 89.0104 129.078 92.3656C130.037 95.7209 131.379 98.1654 133.105 99.6993C134.926 101.233 137.035 102 139.432 102ZM130.66 61.8807C134.687 61.8807 138.425 61.3055 141.876 60.1551C145.328 59.0048 148.347 57.2792 150.936 54.9785C153.524 52.6777 155.489 49.8018 156.831 46.3507C158.269 42.8995 158.988 38.9212 158.988 34.4155C158.988 31.1561 158.461 28.7595 157.406 27.2257C156.352 25.6919 154.818 24.9249 152.805 24.9249C150.217 24.9249 147.724 25.8836 145.328 27.8009C142.931 29.7182 140.678 32.4024 138.569 35.8535C136.46 39.2087 134.591 43.1392 132.961 47.6448C131.427 52.0546 130.229 56.7999 129.366 61.8807H130.66ZM196.256 92.972C189.448 85.6707 186.044 75.7547 186.044 63.224C186.044 50.6933 189.448 40.8267 196.256 33.624C203.162 26.3227 212.388 22.672 223.932 22.672C235.574 22.672 244.8 26.3227 251.608 33.624C258.514 40.8267 261.968 50.6933 261.968 63.224C261.968 75.7547 258.514 85.6707 251.608 92.972C244.8 100.175 235.574 103.776 223.932 103.776C212.388 103.776 203.162 100.175 196.256 92.972ZM207.652 42.8C203.705 47.9307 201.732 54.7387 201.732 63.224C201.732 71.7093 203.705 78.5173 207.652 83.648C211.697 88.7787 217.124 91.344 223.932 91.344C230.74 91.344 236.166 88.7787 240.212 83.648C244.257 78.5173 246.28 71.7093 246.28 63.224C246.28 54.7387 244.257 47.9307 240.212 42.8C236.166 37.6693 230.74 35.104 223.932 35.104C217.124 35.104 211.697 37.6693 207.652 42.8ZM292.872 10.58H284.192V0.359998H294.412V9.04H318.772V0.359998H328.992V10.58H320.312V19.26H292.872V10.58ZM275.512 26.4H285.732V87.02H292.872V78.34H301.552V60.98H310.092V52.3H318.772V43.62H327.452V35.08H336.132V26.4H346.212V105.92H336.132V45.16H328.992V53.84H320.312V62.52H311.632V79.74H302.952V88.42H294.412V97.1H285.732V105.92H275.512V26.4ZM456.864 26.544H482.352V102H467.664V37.2L445.056 102H426.192L403.728 37.2V102H388.896V26.544H414.528L435.84 93.36L456.864 26.544ZM495.924 64.272C495.924 51.312 499.284 41.52 506.004 34.896C512.724 28.176 521.652 24.816 532.788 24.816C556.308 24.816 568.068 38.832 568.068 66.864V68.736H511.332C511.908 76.512 514.164 82.464 518.1 86.592C522.132 90.624 527.364 92.64 533.796 92.64C542.916 92.64 549.108 88.752 552.372 80.976L567.06 81.984C565.044 88.8 561.156 94.128 555.396 97.968C549.732 101.808 542.532 103.728 533.796 103.728C522.18 103.728 512.964 100.416 506.148 93.792C499.332 87.168 495.924 77.328 495.924 64.272ZM511.476 58.656H552.804C552.516 51.552 550.596 45.984 547.044 41.952C543.492 37.92 538.74 35.904 532.788 35.904C526.836 35.904 521.94 37.824 518.1 41.664C514.356 45.504 512.148 51.168 511.476 58.656ZM581.344 102V26.544H596.752V57.216H632.752V26.544H648.16V102H632.752V69.888H596.752V102H581.344ZM659.349 39.216V26.544H725.445V39.216H700.101V102H684.693V39.216H659.349ZM739.477 93.216C732.853 86.112 729.541 76.464 729.541 64.272C729.541 52.08 732.853 42.48 739.477 35.472C746.197 28.368 755.173 24.816 766.405 24.816C777.733 24.816 786.709 28.368 793.333 35.472C800.053 42.48 803.413 52.08 803.413 64.272C803.413 76.464 800.053 86.112 793.333 93.216C786.709 100.224 777.733 103.728 766.405 103.728C755.173 103.728 746.197 100.224 739.477 93.216ZM750.565 44.4C746.725 49.392 744.805 56.016 744.805 64.272C744.805 72.528 746.725 79.152 750.565 84.144C754.501 89.136 759.781 91.632 766.405 91.632C773.029 91.632 778.309 89.136 782.245 84.144C786.181 79.152 788.149 72.528 788.149 64.272C788.149 56.016 786.181 49.392 782.245 44.4C778.309 39.408 773.029 36.912 766.405 36.912C759.781 36.912 754.501 39.408 750.565 44.4ZM816.93 130.8V26.544H831.186V41.664C833.586 36.288 837.09 32.16 841.698 29.28C846.306 26.304 851.49 24.816 857.25 24.816C866.658 24.816 874.29 28.368 880.146 35.472C886.098 42.48 889.074 52.08 889.074 64.272C889.074 76.464 886.098 86.112 880.146 93.216C874.29 100.224 866.706 103.728 857.394 103.728C846.066 103.728 837.714 98.688 832.338 88.608V130.8H816.93ZM837.234 44.4C833.49 49.392 831.618 56.016 831.618 64.272C831.618 72.528 833.49 79.152 837.234 84.144C841.074 89.136 846.21 91.632 852.642 91.632C859.17 91.632 864.306 89.136 868.05 84.144C871.89 79.152 873.81 72.528 873.81 64.272C873.81 56.016 871.89 49.392 868.05 44.4C864.306 39.408 859.17 36.912 852.642 36.912C846.21 36.912 841.074 39.408 837.234 44.4ZM154.374 186.976C169.446 188.512 176.982 194.656 176.982 205.408C176.982 211.264 174.726 216.16 170.214 220.096C165.798 224.032 158.598 226 148.614 226H111.75V150.544H146.742C155.958 150.544 162.87 152.32 167.478 155.872C172.182 159.328 174.534 163.888 174.534 169.552C174.534 179.344 167.814 185.152 154.374 186.976ZM127.158 162.064V182.512H145.59C154.614 182.512 159.126 179.104 159.126 172.288C159.126 165.472 154.374 162.064 144.87 162.064H127.158ZM147.174 214.48C156.774 214.48 161.574 210.784 161.574 203.392C161.574 196.192 156.534 192.592 146.454 192.592H127.158V214.48H147.174ZM283.424 213.328H292.64V246.16H278.096V226H228.56V246.16H214.016V213.328H219.776C221.312 209.968 222.56 204.976 223.52 198.352C224.48 191.632 225.152 185.44 225.536 179.776C225.92 174.016 226.496 164.272 227.264 150.544H283.424V213.328ZM268.016 213.328V163.216H240.512C240.416 164.752 240.224 167.104 239.936 170.272C239.744 173.44 239.6 175.696 239.504 177.04C239.408 178.288 239.264 180.256 239.072 182.944C238.88 185.536 238.736 187.456 238.64 188.704C238.544 189.856 238.4 191.488 238.208 193.6C238.016 195.616 237.824 197.2 237.632 198.352C237.44 199.504 237.2 200.896 236.912 202.528C236.72 204.16 236.48 205.504 236.192 206.56C236 207.616 235.76 208.768 235.472 210.016C235.184 211.168 234.848 212.272 234.464 213.328H268.016ZM349.833 150.544H372.729V226H357.897V161.776L326.217 226H303.321V150.544H318.153V214.768L349.833 150.544ZM428.782 186.976C444.334 188.512 452.11 194.848 452.11 205.984C452.11 212.416 449.566 217.648 444.478 221.68C439.39 225.712 430.894 227.728 418.99 227.728C397.198 227.728 385.726 219.328 384.574 202.528L399.406 201.808C400.174 211.216 406.702 215.92 418.99 215.92C430.798 215.92 436.702 211.888 436.702 203.824C436.702 196.336 430.366 192.592 417.694 192.592H408.91V182.512H416.974C422.83 182.512 427.15 181.552 429.934 179.632C432.814 177.616 434.254 174.976 434.254 171.712C434.254 168.256 432.862 165.568 430.078 163.648C427.39 161.632 423.742 160.624 419.134 160.624C414.334 160.624 410.35 161.728 407.182 163.936C404.11 166.144 402.334 169.504 401.854 174.016L387.022 173.152C387.598 164.896 390.766 158.8 396.526 154.864C402.382 150.832 409.918 148.816 419.134 148.816C429.31 148.816 436.942 150.64 442.03 154.288C447.118 157.84 449.662 162.64 449.662 168.688C449.662 178.864 442.702 184.96 428.782 186.976ZM461.369 205.984C461.369 192.16 471.497 184.288 491.753 182.368L513.065 180.352V174.592C513.065 170.176 511.673 166.624 508.889 163.936C506.201 161.248 502.121 159.904 496.649 159.904C491.753 159.904 487.721 161.056 484.553 163.36C481.385 165.568 479.657 168.832 479.369 173.152H465.257C465.545 164.8 468.569 158.656 474.329 154.72C480.089 150.784 487.529 148.816 496.649 148.816C506.921 148.816 514.793 151.264 520.265 156.16C525.737 161.056 528.473 168.256 528.473 177.76V226H514.217V211.312C511.817 216.496 508.217 220.528 503.417 223.408C498.617 226.288 492.809 227.728 485.993 227.728C477.833 227.728 471.689 225.712 467.561 221.68C463.433 217.648 461.369 212.416 461.369 205.984ZM476.633 205.264C476.633 208.72 477.785 211.552 480.089 213.76C482.489 215.872 486.041 216.928 490.745 216.928C497.561 216.928 502.985 214.816 507.017 210.592C511.049 206.272 513.065 200.752 513.065 194.032V190L493.769 191.872C482.345 193.024 476.633 197.488 476.633 205.264ZM595.776 135.424C592.224 139.072 586.992 140.896 580.08 140.896C573.168 140.896 567.888 139.072 564.24 135.424C560.688 131.776 558.816 126.832 558.624 120.592H568.848C569.136 123.664 570.144 126.352 571.872 128.656C573.696 130.864 576.432 131.968 580.08 131.968C586.704 131.968 590.448 128.176 591.312 120.592H601.392C601.2 126.832 599.328 131.776 595.776 135.424ZM591.888 150.544H614.784V226H599.952V161.776L568.272 226H545.376V150.544H560.208V214.768L591.888 150.544ZM632.389 226V150.544H647.797V181.216H683.797V150.544H699.205V226H683.797V193.888H647.797V226H632.389ZM712.698 188.272C712.698 175.312 716.058 165.52 722.778 158.896C729.498 152.176 738.426 148.816 749.562 148.816C773.082 148.816 784.842 162.832 784.842 190.864V192.736H728.106C728.682 200.512 730.938 206.464 734.874 210.592C738.906 214.624 744.138 216.64 750.57 216.64C759.69 216.64 765.882 212.752 769.146 204.976L783.834 205.984C781.818 212.8 777.93 218.128 772.17 221.968C766.506 225.808 759.306 227.728 750.57 227.728C738.954 227.728 729.738 224.416 722.922 217.792C716.106 211.168 712.698 201.328 712.698 188.272ZM728.25 182.656H769.578C769.29 175.552 767.37 169.984 763.818 165.952C760.266 161.92 755.514 159.904 749.562 159.904C743.61 159.904 738.714 161.824 734.874 165.664C731.13 169.504 728.922 175.168 728.25 182.656Z" fill="white"/>
</svg>
